<svg width="25" height="24" viewBox="0 0 25 24" fill="none" xmlns="http://www.w3.org/2000/svg">
<g clip-path="url(#clip0_2674_9515)">
<path d="M21.622 12.9992C22.385 12.9984 23.1166 12.6949 23.6562 12.1554C24.1957 11.6158 24.4992 10.8842 24.5 10.1212C24.4989 9.31462 24.3076 8.51966 23.9417 7.80086C23.5758 7.08205 23.0455 6.45966 22.394 5.9842L15.509 0.9782C14.6356 0.339944 13.5818 -0.00404358 12.5 -0.00404358C11.4182 -0.00404358 10.3644 0.339944 9.491 0.9782L2.606 5.9842C1.95445 6.45966 1.4242 7.08205 1.05828 7.80086C0.692362 8.51966 0.501093 9.31462 0.5 10.1212C0.500794 10.8842 0.804266 11.6158 1.34382 12.1554C1.88338 12.6949 2.61495 12.9984 3.378 12.9992H11.5V22.9992C11.5 23.2644 11.6054 23.5188 11.7929 23.7063C11.9804 23.8938 12.2348 23.9992 12.5 23.9992C12.7652 23.9992 13.0196 23.8938 13.2071 23.7063C13.3946 23.5188 13.5 23.2644 13.5 22.9992V12.9992H21.622ZM16 8.0742C16.327 8.56563 16.501 9.14294 16.5 9.7332V10.9992H13.5V4.3122L16 8.0742ZM21.218 7.5992C21.6151 7.88906 21.9381 8.26853 22.1609 8.70676C22.3836 9.14499 22.4998 9.6296 22.5 10.1212C22.4997 10.354 22.4071 10.5771 22.2425 10.7417C22.0779 10.9063 21.8548 10.9989 21.622 10.9992H18.5V9.7332C18.5009 8.74897 18.2104 7.7865 17.665 6.9672L15.165 3.1972L21.218 7.5992ZM2.5 10.1212C2.50019 9.6296 2.61638 9.14499 2.83915 8.70676C3.06191 8.26853 3.38495 7.88906 3.782 7.5992L9.839 3.1992L7.339 6.9692C6.79257 7.78749 6.50064 8.74924 6.5 9.7332V10.9992H3.378C3.14522 10.9989 2.92205 10.9063 2.75745 10.7417C2.59285 10.5771 2.50026 10.354 2.5 10.1212ZM8.5 10.9992V9.7332C8.49903 9.14294 8.67302 8.56563 9 8.0742L11.5 4.3122V10.9992H8.5Z" fill="black"/>
<path d="M4.5 19H2.5V16C2.5 15.7348 2.39464 15.4804 2.20711 15.2929C2.01957 15.1054 1.76522 15 1.5 15C1.23478 15 0.98043 15.1054 0.792893 15.2929C0.605357 15.4804 0.5 15.7348 0.5 16L0.5 23C0.5 23.2652 0.605357 23.5196 0.792893 23.7071C0.98043 23.8946 1.23478 24 1.5 24C1.76522 24 2.01957 23.8946 2.20711 23.7071C2.39464 23.5196 2.5 23.2652 2.5 23V21H4.5C4.76522 21 5.01957 21.1054 5.20711 21.2929C5.39464 21.4804 5.5 21.7348 5.5 22V23C5.5 23.2652 5.60536 23.5196 5.79289 23.7071C5.98043 23.8946 6.23478 24 6.5 24C6.76522 24 7.01957 23.8946 7.20711 23.7071C7.39464 23.5196 7.5 23.2652 7.5 23V22C7.5 21.2044 7.18393 20.4413 6.62132 19.8787C6.05871 19.3161 5.29565 19 4.5 19Z" fill="black"/>
<path d="M23.5002 15C23.235 15 22.9807 15.1054 22.7931 15.2929C22.6056 15.4804 22.5002 15.7348 22.5002 16V19H20.5002C19.7046 19 18.9415 19.3161 18.3789 19.8787C17.8163 20.4413 17.5002 21.2044 17.5002 22V23C17.5002 23.2652 17.6056 23.5196 17.7931 23.7071C17.9807 23.8946 18.235 24 18.5002 24C18.7655 24 19.0198 23.8946 19.2074 23.7071C19.3949 23.5196 19.5002 23.2652 19.5002 23V22C19.5002 21.7348 19.6056 21.4804 19.7931 21.2929C19.9807 21.1054 20.235 21 20.5002 21H22.5002V23C22.5002 23.2652 22.6056 23.5196 22.7931 23.7071C22.9807 23.8946 23.235 24 23.5002 24C23.7655 24 24.0198 23.8946 24.2074 23.7071C24.3949 23.5196 24.5002 23.2652 24.5002 23V16C24.5002 15.7348 24.3949 15.4804 24.2074 15.2929C24.0198 15.1054 23.7655 15 23.5002 15Z" fill="black"/>
</g>
<defs>
<clipPath id="clip0_2674_9515">
<rect width="24" height="24" fill="white" transform="translate(0.5)"/>
</clipPath>
</defs>
</svg>
