<svg width="24" height="24" viewBox="0 0 24 24" fill="none" xmlns="http://www.w3.org/2000/svg">
<g clip-path="url(#clip0_2674_9508)">
<path d="M13 14.1845V8.00047C13 7.73525 12.8946 7.4809 12.7071 7.29336C12.5196 7.10583 12.2652 7.00047 12 7.00047C11.7348 7.00047 11.4804 7.10583 11.2929 7.29336C11.1054 7.4809 11 7.73525 11 8.00047V14.1845C10.3345 14.4203 9.77369 14.8838 9.41674 15.493C9.0598 16.1022 8.92965 16.818 9.0493 17.5139C9.16895 18.2097 9.53069 18.8409 10.0706 19.2959C10.6105 19.751 11.2939 20.0005 12 20.0005C12.7061 20.0005 13.3895 19.751 13.9294 19.2959C14.4693 18.8409 14.8311 18.2097 14.9507 17.5139C15.0704 16.818 14.9402 16.1022 14.5833 15.493C14.2263 14.8838 13.6655 14.4203 13 14.1845ZM17 12.1115V5.00047C16.789 -1.60852 7.209 -1.59952 7 5.00047V12.1115C6.03533 13.096 5.38281 14.3435 5.12426 15.6974C4.8657 17.0513 5.01262 18.4514 5.5466 19.7222C6.08058 20.9929 6.97784 22.0778 8.12587 22.8406C9.27391 23.6035 10.6216 24.0104 12 24.0104C13.3784 24.0104 14.7261 23.6035 15.8741 22.8406C17.0222 22.0778 17.9194 20.9929 18.4534 19.7222C18.9874 18.4514 19.1343 17.0513 18.8758 15.6974C18.6172 14.3435 17.9647 13.096 17 12.1115ZM12 22.0005C10.9935 21.9892 10.0137 21.6755 9.18785 21.1001C8.36198 20.5247 7.72823 19.7143 7.36892 18.7741C7.00961 17.8339 6.94136 16.8073 7.17303 15.8278C7.4047 14.8483 7.92558 13.9611 8.668 13.2815C8.77246 13.1877 8.85601 13.073 8.91321 12.9448C8.97041 12.8166 8.99998 12.6778 9 12.5375V5.00047C9 4.20483 9.31607 3.44176 9.87868 2.87916C10.4413 2.31655 11.2044 2.00048 12 2.00048C12.7957 2.00048 13.5587 2.31655 14.1213 2.87916C14.6839 3.44176 15 4.20483 15 5.00047V12.5375C15 12.6778 15.0296 12.8166 15.0868 12.9448C15.144 13.073 15.2275 13.1877 15.332 13.2815C16.0744 13.9611 16.5953 14.8483 16.827 15.8278C17.0586 16.8073 16.9904 17.8339 16.6311 18.7741C16.2718 19.7143 15.638 20.5247 14.8122 21.1001C13.9863 21.6755 13.0065 21.9892 12 22.0005Z" fill="black"/>
</g>
<defs>
<clipPath id="clip0_2674_9508">
<rect width="24" height="24" fill="white"/>
</clipPath>
</defs>
</svg>
