<svg width="24" height="24" viewBox="0 0 24 24" fill="none" xmlns="http://www.w3.org/2000/svg">
<g clip-path="url(#clip0_3579_11014)">
<path d="M22.9 8.95563C22.2246 8.61334 21.4133 8.68469 20.808 9.13961L18.975 10.5006C18.7151 7.94725 16.5666 6.00386 14 6.00063H13.915L9.79303 1.87961C9.23208 1.31472 8.46816 0.998125 7.67203 1.00061H0.999984C0.447703 1.00061 0 1.44836 0 2.00064C0 2.55292 0.447703 3.00063 0.999984 3.00063H7.67198C7.93706 3.00133 8.19112 3.10661 8.379 3.29364L11.086 6.00063H5.00002C2.23997 6.00395 0.00332812 8.24059 0 11.0006V19.0007C0.00332812 21.7607 2.23997 23.9973 5.00002 24.0006H14C16.5666 23.9974 18.7151 22.054 18.975 19.5006L20.805 20.8646C21.6886 21.5274 22.9423 21.3483 23.605 20.4647C23.8646 20.1185 24.005 19.6974 24.005 19.2647V10.7436C24.0076 9.9857 23.5791 9.29228 22.9 8.95563ZM17 19.0006C17 20.6575 15.6569 22.0006 14 22.0006H5.00002C3.34317 22.0006 2.00002 20.6575 2.00002 19.0006V11.0006C2.00002 9.3438 3.34317 8.00064 5.00002 8.00064H14C15.6569 8.00064 17 9.3438 17 11.0006V19.0006ZM22 19.2576L19 17.0216V12.9797L22 10.7437V19.2576Z" fill="black"/>
</g>
<defs>
<clipPath id="clip0_3579_11014">
<rect width="24" height="24" fill="white"/>
</clipPath>
</defs>
</svg>
