<svg width="25" height="24" viewBox="0 0 25 24" fill="none" xmlns="http://www.w3.org/2000/svg">
<g clip-path="url(#clip0_2674_9523)">
<path d="M21.7612 2.7389C20.0447 1.07943 17.7832 0.100954 15.3984 -0.0140432C13.0137 -0.12904 10.6685 0.62729 8.80024 2.1139C8.39487 1.4634 7.82968 0.92753 7.15854 0.557342C6.48739 0.187153 5.73264 -0.00502429 4.96618 -0.000881577C4.19973 0.00326114 3.44709 0.203586 2.77999 0.581008C2.11289 0.95843 1.55353 1.50038 1.15521 2.15522C0.756896 2.81006 0.532885 3.55599 0.50452 4.32193C0.476156 5.08787 0.644383 5.84833 0.993176 6.53083C1.34197 7.21334 1.85971 7.79518 2.49707 8.22091C3.13443 8.64664 3.87018 8.90208 4.63424 8.9629C4.31917 10.8938 4.61347 12.8749 5.47624 14.6309C5.52321 14.7209 5.54167 14.8231 5.52916 14.9238C5.51666 15.0246 5.47378 15.1191 5.40624 15.1949L2.50024 16.9449C1.76076 17.3342 1.17284 17.9598 0.830146 18.7221C0.487454 19.4843 0.409702 20.3392 0.609277 21.1508C0.808853 21.9623 1.27427 22.6837 1.93139 23.2C2.58851 23.7164 3.39953 23.9979 4.23524 23.9999C4.38797 23.9999 4.54057 23.9909 4.69224 23.9729C5.24797 23.9082 5.78184 23.7185 6.25379 23.418C6.72574 23.1175 7.1235 22.7141 7.41724 22.2379L9.48524 19.1109C9.55981 19.0379 9.65535 18.9901 9.75846 18.9741C9.86157 18.9582 9.96709 18.9749 10.0602 19.0219C11.9269 19.9257 14.0349 20.2049 16.0725 19.8183C18.1102 19.4316 19.9693 18.3997 21.3752 16.8749C23.289 14.9897 24.4073 12.4426 24.5002 9.7579C24.5519 8.46236 24.3353 7.17012 23.864 5.96226C23.3926 4.75441 22.6768 3.657 21.7612 2.7389ZM2.50024 4.4999C2.50024 4.00544 2.64686 3.5221 2.92156 3.11097C3.19627 2.69985 3.58671 2.37942 4.04353 2.1902C4.50034 2.00098 5.00301 1.95147 5.48796 2.04793C5.97292 2.1444 6.41837 2.3825 6.768 2.73213C7.11764 3.08176 7.35574 3.52722 7.4522 4.01217C7.54866 4.49712 7.49916 4.99979 7.30994 5.45661C7.12072 5.91342 6.80029 6.30387 6.38916 6.57857C5.97804 6.85328 5.49469 6.9999 5.00024 6.9999C4.3372 6.9999 3.70131 6.73651 3.23247 6.26767C2.76363 5.79882 2.50024 5.16294 2.50024 4.4999ZM10.9402 17.2259C10.4393 16.9779 9.86952 16.9054 9.32241 17.02C8.7753 17.1346 8.28255 17.4297 7.92324 17.8579C7.89924 17.8869 7.87724 17.9169 7.85624 17.9479L5.72924 21.1659C5.51958 21.5087 5.19788 21.7684 4.81863 21.9012C4.43938 22.0339 4.02591 22.0315 3.64826 21.8942C3.27061 21.757 2.952 21.4935 2.74643 21.1482C2.54085 20.803 2.46094 20.3973 2.52024 19.9999C2.56308 19.72 2.67281 19.4546 2.84011 19.2262C3.00741 18.9978 3.22734 18.8132 3.48124 18.6879L6.52224 16.8569C6.5666 16.8304 6.60874 16.8003 6.64824 16.7669C7.07531 16.4069 7.36894 15.9138 7.48193 15.3668C7.59492 14.8198 7.52072 14.2506 7.27124 13.7509C6.6182 12.4329 6.37674 10.9489 6.57824 9.4919L15.0112 17.9249C13.6153 18.0881 12.2018 17.8454 10.9402 17.2259ZM19.9612 15.4609C19.1756 16.2484 18.2488 16.881 17.2292 17.3259C17.2202 17.3159 17.2172 17.3029 17.2072 17.2929L7.86024 7.9449C8.3707 7.52712 8.78245 7.00162 9.06598 6.40603C9.34951 5.81045 9.4978 5.15952 9.50024 4.4999C9.50024 4.3809 9.47424 4.2689 9.46524 4.1529C10.9458 2.78254 12.8889 2.0213 14.9062 2.0213C16.9236 2.0213 18.8667 2.78254 20.3472 4.1529C21.0693 4.87898 21.6333 5.74662 22.0039 6.70123C22.3744 7.65585 22.5434 8.67681 22.5002 9.6999C22.4219 11.8743 21.5132 13.936 19.9612 15.4609Z" fill="black"/>
</g>
<defs>
<clipPath id="clip0_2674_9523">
<rect width="24" height="24" fill="white" transform="translate(0.5)"/>
</clipPath>
</defs>
</svg>
