<svg width="25" height="24" viewBox="0 0 25 24" fill="none" xmlns="http://www.w3.org/2000/svg">
<g clip-path="url(#clip0_2674_9496)">
<path d="M23.4999 20.9994H22.2209L20.8999 17.0504C20.701 16.4539 20.3197 15.935 19.81 15.567C19.3002 15.199 18.6877 15.0004 18.0589 14.9994H14.4999C13.9695 14.9994 13.4608 14.7887 13.0857 14.4136C12.7106 14.0385 12.4999 13.5298 12.4999 12.9994H18.4999C18.7651 12.9994 19.0195 12.894 19.207 12.7065C19.3945 12.519 19.4999 12.2646 19.4999 11.9994C19.4999 11.7342 19.3945 11.4798 19.207 11.2923C19.0195 11.1047 18.7651 10.9994 18.4999 10.9994H12.4999V7.99938C12.4939 7.95416 12.4849 7.9094 12.4729 7.86538C13.4196 7.62798 14.2468 7.05266 14.7987 6.24777C15.3507 5.44287 15.5894 4.46395 15.4698 3.49533C15.3502 2.52672 14.8805 1.63525 14.1494 0.988797C13.4182 0.342348 12.4759 -0.014473 11.4999 -0.014473C10.5239 -0.014473 9.58163 0.342348 8.85045 0.988797C8.11927 1.63525 7.64966 2.52672 7.53005 3.49533C7.41045 4.46395 7.6491 5.44287 8.20107 6.24777C8.75305 7.05266 9.58025 7.62798 10.5269 7.86538C10.5149 7.9094 10.5059 7.95416 10.4999 7.99938V12.9994C10.502 14.0434 10.9122 15.0453 11.643 15.791C12.3737 16.5367 13.3671 16.9672 14.4109 16.9904C14.2281 18.0833 13.7463 19.1042 13.0187 19.9401C12.2912 20.7759 11.3464 21.3939 10.2892 21.7256C9.23188 22.0573 8.1034 22.0897 7.02881 21.8193C5.95423 21.5489 4.97552 20.9861 4.20118 20.1935C3.42685 19.4009 2.88714 18.4093 2.64189 17.3287C2.39664 16.2481 2.45543 15.1206 2.81173 14.0714C3.16804 13.0222 3.80795 12.0921 4.66052 11.3843C5.51309 10.6765 6.54502 10.2186 7.6419 10.0614C7.9046 10.0237 8.14158 9.88325 8.3007 9.67086C8.45983 9.45848 8.52806 9.19158 8.4904 8.92888C8.45274 8.66618 8.31227 8.42921 8.09988 8.27008C7.8875 8.11096 7.6206 8.04272 7.3579 8.08038C5.88187 8.29208 4.49438 8.91209 3.352 9.87045C2.20962 10.8288 1.35783 12.0874 0.892739 13.5041C0.42765 14.9209 0.367779 16.4394 0.719881 17.8884C1.07198 19.3374 1.82204 20.6591 2.88542 21.7044C3.9488 22.7497 5.28317 23.4771 6.73796 23.8043C8.19274 24.1316 9.71003 24.0457 11.1186 23.5564C12.5272 23.0672 13.771 22.194 14.7097 21.0353C15.6483 19.8767 16.2445 18.4788 16.4309 16.9994H18.0589C18.2689 16.9993 18.4735 17.0654 18.6439 17.1881C18.8142 17.3109 18.9416 17.4842 19.0079 17.6834L20.5519 22.3154C20.6182 22.5144 20.7454 22.6876 20.9155 22.8103C21.0857 22.9331 21.2901 22.9992 21.4999 22.9994H23.4999C23.7651 22.9994 24.0195 22.894 24.207 22.7065C24.3946 22.519 24.4999 22.2646 24.4999 21.9994C24.4999 21.7342 24.3946 21.4798 24.207 21.2923C24.0195 21.1047 23.7651 20.9994 23.4999 20.9994ZM9.4999 3.99938C9.4999 3.60382 9.6172 3.21714 9.83696 2.88824C10.0567 2.55934 10.3691 2.303 10.7345 2.15162C11.1 2.00025 11.5021 1.96064 11.8901 2.03781C12.278 2.11498 12.6344 2.30546 12.9141 2.58517C13.1938 2.86487 13.3843 3.22124 13.4615 3.6092C13.5386 3.99716 13.499 4.3993 13.3477 4.76475C13.1963 5.1302 12.9399 5.44256 12.611 5.66232C12.2821 5.88208 11.8955 5.99938 11.4999 5.99938C10.9695 5.99938 10.4608 5.78867 10.0857 5.4136C9.71062 5.03852 9.4999 4.52981 9.4999 3.99938Z" fill="black"/>
</g>
<defs>
<clipPath id="clip0_2674_9496">
<rect width="24" height="24" fill="white" transform="translate(0.5)"/>
</clipPath>
</defs>
</svg>
