<svg width="24" height="24" viewBox="0 0 24 24" fill="none" xmlns="http://www.w3.org/2000/svg">
<g clip-path="url(#clip0_2674_9531)">
<path d="M23.9548 21.3188C23.9158 21.1934 23.8525 21.0769 23.7685 20.9759C23.6844 20.875 23.5814 20.7916 23.4651 20.7305C23.3488 20.6694 23.2217 20.6318 23.0909 20.6198C22.9601 20.6079 22.8282 20.6218 22.7028 20.6608L21.4028 21.0608L20.4718 18.3238C21.4497 17.7751 22.2124 16.9108 22.6353 15.8723C23.0582 14.8338 23.1162 13.6826 22.7998 12.6068L20.9568 7.13181C20.7248 6.38436 20.212 5.756 19.5263 5.3789C18.8405 5.00179 18.0352 4.90533 17.2798 5.10981L13.4278 6.18381C12.8754 6.33751 12.3794 6.64804 11.9998 7.07781C11.6202 6.64804 11.1242 6.33751 10.5718 6.18381L6.71879 5.10981C5.96886 4.90295 5.16795 4.99467 4.48421 5.36573C3.80046 5.73678 3.28706 6.3583 3.05179 7.09981L1.18479 12.6568C0.88081 13.7317 0.948893 14.8778 1.378 15.9092C1.8071 16.9406 2.57206 17.7967 3.54879 18.3388L2.60479 21.0668L1.29979 20.6608C1.17438 20.6214 1.04244 20.6071 0.911493 20.6187C0.78055 20.6303 0.653174 20.6676 0.536636 20.7284C0.420099 20.7892 0.316682 20.8724 0.232291 20.9732C0.147901 21.074 0.0841879 21.1904 0.0447914 21.3158C0.00539479 21.4412 -0.0089142 21.5732 0.00268137 21.7041C0.0142769 21.8351 0.05155 21.9624 0.112372 22.079C0.173195 22.1955 0.256375 22.2989 0.357165 22.3833C0.457954 22.4677 0.574379 22.5314 0.699791 22.5708L2.85979 23.2418C2.87479 23.2418 2.88379 23.2588 2.89879 23.2648C2.91379 23.2708 2.95079 23.2708 2.97679 23.2778L5.15779 23.9548C5.41107 24.0336 5.68527 24.0085 5.92007 23.8851C6.15486 23.7617 6.33102 23.5501 6.40979 23.2968C6.48856 23.0435 6.46349 22.7693 6.34009 22.5345C6.21669 22.2997 6.00507 22.1236 5.75179 22.0448L4.51579 21.6598L5.45079 18.9598C5.63623 18.9836 5.82286 18.997 6.00979 18.9998C7.09096 18.9971 8.14213 18.6441 9.00573 17.9936C9.86932 17.3431 10.4988 16.4302 10.7998 15.3918L11.9998 11.8358L13.1828 15.3358C13.4744 16.3875 14.1021 17.3148 14.97 17.9764C15.8379 18.6379 16.8985 18.9974 17.9898 18.9998C18.1841 18.998 18.3781 18.9846 18.5708 18.9598L19.4888 21.6598L18.2448 22.0458C17.9915 22.1246 17.7799 22.3007 17.6565 22.5355C17.5331 22.7703 17.508 23.0445 17.5868 23.2978C17.6656 23.5511 17.8417 23.7627 18.0765 23.8861C18.3113 24.0095 18.5855 24.0346 18.8388 23.9558L21.0138 23.2808C21.0398 23.2738 21.0668 23.2808 21.0928 23.2678C21.1188 23.2548 21.1188 23.2488 21.1348 23.2428L23.2968 22.5718C23.4223 22.5328 23.5389 22.4695 23.64 22.3854C23.741 22.3013 23.8245 22.1981 23.8856 22.0817C23.9467 21.9654 23.9843 21.8381 23.9961 21.7072C24.008 21.5763 23.994 21.4443 23.9548 21.3188ZM13.3568 8.59181C13.4204 8.47463 13.5071 8.37153 13.6116 8.2887C13.716 8.20587 13.8362 8.14502 13.9648 8.10981L17.8158 7.03681C17.9017 7.01275 17.9905 7.00031 18.0798 6.99981C18.2997 7.00213 18.5131 7.07528 18.6881 7.20839C18.8632 7.34151 18.9907 7.52751 19.0518 7.73881L19.8128 9.99981H13.4898L13.2748 9.36281C13.2364 9.23531 13.2239 9.10144 13.238 8.96904C13.2521 8.83665 13.2925 8.70839 13.3568 8.59181ZM5.91779 6.99981C6.00733 6.99998 6.09645 7.01208 6.18279 7.03581L10.0348 8.10981C10.2893 8.18 10.5057 8.34796 10.6368 8.57707C10.7679 8.80617 10.8032 9.07784 10.7348 9.33281L10.5098 9.99981H4.18679L4.95679 7.70981C5.02034 7.50446 5.14787 7.32481 5.32076 7.19708C5.49364 7.06934 5.70284 7.00023 5.91779 6.99981ZM8.89179 14.7998C8.73206 15.3706 8.40683 15.8813 7.95712 16.2675C7.50742 16.6536 6.95341 16.8979 6.36501 16.9694C5.77661 17.041 5.1802 16.9367 4.65104 16.6696C4.12188 16.4025 3.6837 15.9847 3.39179 15.4688C3.00531 14.7949 2.90038 13.9957 3.09979 13.2448L3.51379 11.9998H9.83579L8.89179 14.7998ZM16.5238 16.6078C16.1734 16.409 15.8663 16.1421 15.6205 15.8228C15.3748 15.5036 15.1954 15.1384 15.0928 14.7488L14.1638 11.9998H20.4868L20.8868 13.1938C21.0464 13.7656 21.0327 14.372 20.8475 14.936C20.6624 15.5001 20.314 15.9965 19.8465 16.3625C19.3791 16.7285 18.8135 16.9475 18.2215 16.9919C17.6295 17.0363 17.0376 16.904 16.5208 16.6118L16.5238 16.6078Z" fill="black"/>
<path d="M15.553 3.89988C15.6711 3.95924 15.7998 3.99461 15.9316 4.00395C16.0634 4.01329 16.1958 3.99641 16.321 3.95429C16.4463 3.91216 16.5619 3.84563 16.6613 3.75854C16.7607 3.67144 16.8419 3.56552 16.9001 3.44688L17.9001 1.44688C18.0186 1.20951 18.038 0.934766 17.954 0.683092C17.87 0.431418 17.6894 0.223428 17.4521 0.104876C17.2147 -0.0136757 16.9399 -0.0330775 16.6883 0.0509388C16.4366 0.134955 16.2286 0.315507 16.1101 0.552876L15.11 2.55288C15.0503 2.67034 15.0144 2.79845 15.0044 2.92983C14.9943 3.06122 15.0104 3.1933 15.0515 3.31847C15.0927 3.44364 15.1582 3.55945 15.2443 3.65923C15.3303 3.759 15.4353 3.84079 15.553 3.89988Z" fill="black"/>
<path d="M7.10506 3.44688C7.22361 3.68491 7.43186 3.8661 7.684 3.95058C7.80885 3.99241 7.94072 4.00925 8.07207 4.00012C8.20343 3.99099 8.3317 3.95608 8.44956 3.89738C8.56742 3.83868 8.67256 3.75733 8.75899 3.658C8.84541 3.55866 8.91143 3.44328 8.95326 3.31843C8.99509 3.19358 9.01193 3.06171 9.0028 2.93036C8.99367 2.79901 8.95876 2.67074 8.90006 2.55288L7.90006 0.552876C7.84136 0.435343 7.76008 0.330523 7.66087 0.2444C7.56166 0.158278 7.44646 0.0925394 7.32184 0.0509388C7.07017 -0.0330775 6.79543 -0.0136757 6.55806 0.104876C6.32069 0.223428 6.14014 0.431418 6.05612 0.683092C5.9721 0.934766 5.9915 1.20951 6.11006 1.44688L7.10506 3.44688Z" fill="black"/>
<path d="M12.0002 3.99999C12.2655 3.99999 12.5198 3.89464 12.7074 3.7071C12.8949 3.51956 13.0003 3.26521 13.0003 2.99999V0.999992C13.0003 0.734776 12.8949 0.480422 12.7074 0.292886C12.5198 0.105349 12.2655 -7.62939e-06 12.0002 -7.62939e-06C11.735 -7.62939e-06 11.4807 0.105349 11.2931 0.292886C11.1056 0.480422 11.0002 0.734776 11.0002 0.999992V2.99999C11.0002 3.26521 11.1056 3.51956 11.2931 3.7071C11.4807 3.89464 11.735 3.99999 12.0002 3.99999Z" fill="black"/>
</g>
<defs>
<clipPath id="clip0_2674_9531">
<rect width="24" height="24" fill="white"/>
</clipPath>
</defs>
</svg>
