<svg width="25" height="24" viewBox="0 0 25 24" fill="none" xmlns="http://www.w3.org/2000/svg">
<g clip-path="url(#clip0_2674_9503)">
<path d="M0.5 11.9993C0.5 11.734 0.605357 11.4797 0.792893 11.2922C0.98043 11.1046 1.23478 10.9993 1.5 10.9993H7.5C7.76522 10.9993 8.01957 11.1046 8.20711 11.2922C8.39464 11.4797 8.5 11.734 8.5 11.9993C8.5 12.2645 8.39464 12.5188 8.20711 12.7064C8.01957 12.8939 7.76522 12.9993 7.5 12.9993H1.5C1.23478 12.9993 0.98043 12.8939 0.792893 12.7064C0.605357 12.5188 0.5 12.2645 0.5 11.9993ZM21.386 11.1063C21.8845 10.4834 22.2263 9.75011 22.3829 8.96787C22.5395 8.18564 22.5063 7.37725 22.286 6.61051C22.0657 5.84377 21.6648 5.14102 21.1169 4.56118C20.569 3.98134 19.89 3.54132 19.137 3.27802C18.3839 3.01471 17.5787 2.93579 16.7889 3.04788C15.999 3.15997 15.2476 3.4598 14.5975 3.92223C13.9474 4.38465 13.4177 4.99619 13.0528 5.70558C12.6878 6.41496 12.4983 7.20151 12.5 7.99927C12.5 8.26448 12.6054 8.51884 12.7929 8.70637C12.9804 8.89391 13.2348 8.99927 13.5 8.99927C13.7652 8.99927 14.0196 8.89391 14.2071 8.70637C14.3946 8.51884 14.5 8.26448 14.5 7.99927C14.5 7.40592 14.6759 6.8259 15.0056 6.33255C15.3352 5.83921 15.8038 5.45469 16.3519 5.22763C16.9001 5.00056 17.5033 4.94115 18.0853 5.05691C18.6672 5.17267 19.2018 5.45839 19.6213 5.87794C20.0409 6.2975 20.3266 6.83205 20.4424 7.41399C20.5581 7.99594 20.4987 8.59914 20.2716 9.14732C20.0446 9.69549 19.6601 10.164 19.1667 10.4937C18.6734 10.8233 18.0933 10.9993 17.5 10.9993H11.5C11.2348 10.9993 10.9804 11.1046 10.7929 11.2922C10.6054 11.4797 10.5 11.734 10.5 11.9993C10.5 12.2645 10.6054 12.5188 10.7929 12.7064C10.9804 12.8939 11.2348 12.9993 11.5 12.9993H20.5C21.0304 12.9993 21.5391 13.21 21.9142 13.5851C22.2893 13.9601 22.5 14.4688 22.5 14.9993C22.491 17.3363 19.219 17.6473 18.443 15.6663C18.3547 15.4162 18.1706 15.2114 17.9313 15.097C17.692 14.9826 17.4171 14.9679 17.167 15.0563C16.9169 15.1446 16.7121 15.3286 16.5977 15.5679C16.4833 15.8072 16.4687 16.0822 16.557 16.3323C18.115 20.4143 24.452 19.5783 24.5 14.9993C24.4983 14.0937 24.1893 13.2155 23.6236 12.5083C23.058 11.8012 22.2691 11.3069 21.386 11.1063ZM11.5 15.9993H1.5C1.23478 15.9993 0.98043 16.1046 0.792893 16.2922C0.605357 16.4797 0.5 16.734 0.5 16.9993C0.5 17.2645 0.605357 17.5188 0.792893 17.7064C0.98043 17.8939 1.23478 17.9993 1.5 17.9993H11.5C12.0304 17.9993 12.5391 18.21 12.9142 18.5851C13.2893 18.9601 13.5 19.4688 13.5 19.9993C13.491 22.3363 10.219 22.6473 9.443 20.6663C9.39927 20.5424 9.33158 20.4284 9.24378 20.3307C9.15599 20.2331 9.04982 20.1536 8.93134 20.097C8.81285 20.0404 8.68436 20.0076 8.55322 20.0006C8.42207 19.9936 8.29084 20.0125 8.167 20.0563C8.04316 20.1 7.92915 20.1677 7.83148 20.2555C7.7338 20.3433 7.65438 20.4494 7.59773 20.5679C7.54109 20.6864 7.50834 20.8149 7.50135 20.946C7.49436 21.0772 7.51327 21.2084 7.557 21.3323C9.115 25.4143 15.452 24.5783 15.5 19.9993C15.5 18.9384 15.0786 17.921 14.3284 17.1708C13.5783 16.4207 12.5609 15.9993 11.5 15.9993ZM1.5 7.99927H7.5C8.56087 7.99927 9.57828 7.57784 10.3284 6.82769C11.0786 6.07755 11.5 5.06013 11.5 3.99927C11.452 -0.581734 5.113 -1.41473 3.557 2.66627C3.46868 2.91636 3.48333 3.1913 3.59773 3.4306C3.71213 3.6699 3.9169 3.85395 4.167 3.94227C4.4171 4.03058 4.69204 4.01593 4.93133 3.90153C5.17063 3.78714 5.35468 3.58236 5.443 3.33227C6.22 1.35027 9.491 1.66227 9.5 3.99927C9.5 4.5297 9.28929 5.03841 8.91421 5.41348C8.53914 5.78855 8.03043 5.99927 7.5 5.99927H1.5C1.23478 5.99927 0.98043 6.10462 0.792893 6.29216C0.605357 6.47969 0.5 6.73405 0.5 6.99927C0.5 7.26448 0.605357 7.51884 0.792893 7.70637C0.98043 7.89391 1.23478 7.99927 1.5 7.99927Z" fill="black"/>
</g>
<defs>
<clipPath id="clip0_2674_9503">
<rect width="24" height="24" fill="white" transform="translate(0.5)"/>
</clipPath>
</defs>
</svg>
