<svg width="24" height="24" viewBox="0 0 24 24" fill="none" xmlns="http://www.w3.org/2000/svg">
<g clip-path="url(#clip0_2674_9548)">
<path d="M19.99 15.0008H1C0.734784 15.0008 0.48043 15.1062 0.292893 15.2937C0.105357 15.4813 0 15.7356 0 16.0008C0 16.266 0.105357 16.5204 0.292893 16.7079C0.48043 16.8955 0.734784 17.0008 1 17.0008H19.99C20.618 17.0019 21.2375 16.8552 21.7982 16.5724C22.359 16.2896 22.8452 15.8787 23.2177 15.3731C23.5901 14.8674 23.8383 14.2812 23.9421 13.6618C24.0458 13.0424 24.0023 12.4073 23.815 11.8078C22.9307 8.9587 21.1556 6.46844 18.7508 4.70315C16.3459 2.93785 13.4382 1.99067 10.455 2.00083H1C0.734784 2.00083 0.48043 2.10619 0.292893 2.29372C0.105357 2.48126 0 2.73561 0 3.00083C0 3.26605 0.105357 3.5204 0.292893 3.70794C0.48043 3.89547 0.734784 4.00083 1 4.00083H4V7.00083H1C0.734784 7.00083 0.48043 7.10619 0.292893 7.29372C0.105357 7.48126 0 7.73561 0 8.00083C0 8.26605 0.105357 8.5204 0.292893 8.70794C0.48043 8.89547 0.734784 9.00083 1 9.00083H20.213C20.9545 10.0393 21.5263 11.189 21.907 12.4068C22.0014 12.7049 22.0234 13.0213 21.9712 13.3296C21.9191 13.6379 21.7942 13.9294 21.607 14.1798C21.4217 14.4349 21.1785 14.6423 20.8973 14.785C20.6162 14.9277 20.3053 15.0017 19.99 15.0008ZM9 7.00083H6V4.00083H9V7.00083ZM11 7.00083V4.02283C13.7373 4.13721 16.3523 5.18856 18.407 7.00083H11Z" fill="black"/>
<path d="M23 20.0006H1C0.734784 20.0006 0.48043 20.106 0.292893 20.2935C0.105357 20.4811 0 20.7354 0 21.0006C0 21.2659 0.105357 21.5202 0.292893 21.7078C0.48043 21.8953 0.734784 22.0007 1 22.0007H23C23.2652 22.0007 23.5196 21.8953 23.7071 21.7078C23.8946 21.5202 24 21.2659 24 21.0006C24 20.7354 23.8946 20.4811 23.7071 20.2935C23.5196 20.106 23.2652 20.0006 23 20.0006Z" fill="black"/>
</g>
<defs>
<clipPath id="clip0_2674_9548">
<rect width="24" height="24" fill="white"/>
</clipPath>
</defs>
</svg>
