<svg width="24" height="24" viewBox="0 0 24 24" fill="none" xmlns="http://www.w3.org/2000/svg">
<g clip-path="url(#clip0_2674_9627)">
<path d="M19 0H5C3.67441 0.00158786 2.40356 0.528882 1.46622 1.46622C0.528882 2.40356 0.00158786 3.67441 0 5L0 19C0.00158786 20.3256 0.528882 21.5964 1.46622 22.5338C2.40356 23.4711 3.67441 23.9984 5 24H19C20.3256 23.9984 21.5964 23.4711 22.5338 22.5338C23.4711 21.5964 23.9984 20.3256 24 19V5C23.9984 3.67441 23.4711 2.40356 22.5338 1.46622C21.5964 0.528882 20.3256 0.00158786 19 0V0ZM5 2H19C19.7956 2 20.5587 2.31607 21.1213 2.87868C21.6839 3.44129 22 4.20435 22 5V19C21.9983 19.4455 21.8957 19.8848 21.7 20.285L12.537 11.122C12.0727 10.6576 11.5214 10.2892 10.9147 10.0378C10.308 9.78644 9.65772 9.65707 9.001 9.65707C8.34428 9.65707 7.69399 9.78644 7.08728 10.0378C6.48056 10.2892 5.92931 10.6576 5.465 11.122L2 14.586V5C2 4.20435 2.31607 3.44129 2.87868 2.87868C3.44129 2.31607 4.20435 2 5 2ZM5 22C4.20435 22 3.44129 21.6839 2.87868 21.1213C2.31607 20.5587 2 19.7956 2 19V17.414L6.878 12.536C7.1566 12.2572 7.4874 12.0361 7.85151 11.8852C8.21561 11.7343 8.60587 11.6566 9 11.6566C9.39413 11.6566 9.78439 11.7343 10.1485 11.8852C10.5126 12.0361 10.8434 12.2572 11.122 12.536L20.285 21.7C19.8848 21.8957 19.4455 21.9983 19 22H5Z" fill="black"/>
<path d="M16 10.4997C16.6922 10.4997 17.3689 10.2944 17.9445 9.9098C18.5201 9.52521 18.9687 8.97858 19.2336 8.33904C19.4985 7.6995 19.5678 6.99577 19.4327 6.31683C19.2977 5.6379 18.9644 5.01426 18.4749 4.52478C17.9854 4.03529 17.3617 3.70195 16.6828 3.5669C16.0039 3.43185 15.3001 3.50117 14.6606 3.76607C14.0211 4.03098 13.4744 4.47958 13.0899 5.05516C12.7053 5.63073 12.5 6.30742 12.5 6.99965C12.5 7.92791 12.8687 8.81815 13.5251 9.47452C14.1815 10.1309 15.0717 10.4997 16 10.4997ZM16 5.49965C16.2967 5.49965 16.5867 5.58762 16.8334 5.75245C17.08 5.91727 17.2723 6.15154 17.3858 6.42563C17.4994 6.69972 17.5291 7.00132 17.4712 7.29229C17.4133 7.58326 17.2704 7.85053 17.0607 8.06031C16.8509 8.27009 16.5836 8.41295 16.2926 8.47083C16.0017 8.52871 15.7001 8.499 15.426 8.38547C15.1519 8.27194 14.9176 8.07968 14.7528 7.83301C14.588 7.58633 14.5 7.29632 14.5 6.99965C14.5 6.60183 14.658 6.2203 14.9393 5.93899C15.2206 5.65769 15.6022 5.49965 16 5.49965Z" fill="black"/>
</g>
<defs>
<clipPath id="clip0_2674_9627">
<rect width="24" height="24" fill="white"/>
</clipPath>
</defs>
</svg>
